# xmcd
#
# Track frame offsets: 
#        150
#        21230
#        38662
#        57033
#        74728
#        94549
#        114726
#        133395
#        150622
#        165304
#        183947
#        205022
#
# Disc length: 2893 seconds
#
# Revision: 0
# Processed by: cddbd v1.5.2PL0 Copyright (c) Steve Scherf et al.
# Submitted via: ExactAudioCopy v1.3
#
DISCID=9e0b4b0c
DTITLE=Janiva Magness - Change In The Weather
DYEAR=2019
DGENRE=Blues
TTITLE0=Change In The Weather
TTITLE1=Lodi (feat. Sam Morrow)
TTITLE2=Someday Never Comes
TTITLE3=Wrote A Song For Everyone
TTITLE4=Don't You Wish It Was True (feat. Taj Mahal)
TTITLE5=Have You Ever Seen The Rain
TTITLE6=Bad Moon Rising
TTITLE7=Blueboy
TTITLE8=Fortunate Son
TTITLE9=Deja Vu (All Over Again)
TTITLE10=A Hundred And Ten In The Shade
TTITLE11=Lookin’ Out My Back Door
EXTD=
EXTT0=
EXTT1=
EXTT2=
EXTT3=
EXTT4=
EXTT5=
EXTT6=
EXTT7=
EXTT8=
EXTT9=
EXTT10=
EXTT11=
PLAYORDER=
